<svg xmlns="http://www.w3.org/2000/svg" xmlns:xlink="http://www.w3.org/1999/xlink" viewBox="0 0 782.94 325.73"><defs><style>.cls-1{font-size:14.9px;font-family:SegoeUI-Semibold, Segoe UI;font-weight:600;}.cls-1,.cls-2{fill:#010101;}.cls-3{fill:url(#radial-gradient);}.cls-4{fill:url(#radial-gradient-2);}.cls-5{fill:url(#radial-gradient-3);}.cls-6{fill:url(#radial-gradient-4);}.cls-7{fill:url(#radial-gradient-5);}.cls-8{fill:#fff;}.cls-9{fill:url(#linear-gradient);}.cls-10{fill:url(#linear-gradient-2);}.cls-11{fill:url(#linear-gradient-3);}.cls-12{fill:url(#linear-gradient-4);}.cls-13{fill:url(#linear-gradient-5);}.cls-14{fill:url(#linear-gradient-6);}</style><radialGradient id="radial-gradient" cx="521.11" cy="153.2" r="44.25" gradientUnits="userSpaceOnUse"><stop offset="0" stop-color="#ab7245"/><stop offset="1" stop-color="#010101"/></radialGradient><radialGradient id="radial-gradient-2" cx="119.58" cy="90.3" r="87.91" xlink:href="#radial-gradient"/><radialGradient id="radial-gradient-3" cx="79.53" cy="162.58" r="22.36" xlink:href="#radial-gradient"/><radialGradient id="radial-gradient-4" cx="158.72" cy="162.58" r="22.36" xlink:href="#radial-gradient"/><radialGradient id="radial-gradient-5" cx="121.44" cy="234.1" r="65.56" xlink:href="#radial-gradient"/><linearGradient id="linear-gradient" x1="70.72" y1="74.13" x2="169.39" y2="74.13" gradientUnits="userSpaceOnUse"><stop offset="0" stop-color="#ab7245"/><stop offset="1" stop-color="#dcc492"/></linearGradient><linearGradient id="linear-gradient-2" x1="342.47" y1="215.09" x2="704.19" y2="215.09" xlink:href="#linear-gradient"/><linearGradient id="linear-gradient-3" x1="55.62" y1="9.82" x2="71.89" y2="9.82" xlink:href="#linear-gradient"/><linearGradient id="linear-gradient-4" x1="168.55" y1="10.5" x2="184.82" y2="10.5" xlink:href="#linear-gradient"/><linearGradient id="linear-gradient-5" x1="110.73" y1="292.62" x2="127" y2="292.62" xlink:href="#linear-gradient"/><linearGradient id="linear-gradient-6" x1="675.77" y1="107.22" x2="709.01" y2="107.22" xlink:href="#linear-gradient"/></defs><g id="Layer_2" data-name="Layer 2"><g id="Layer_1-2" data-name="Layer 1"><text class="cls-1" transform="translate(606.56 65.05) rotate(-34.49)">P</text><text class="cls-1" transform="translate(613.58 60.24) rotate(-29.39)">E</text><text class="cls-1" transform="translate(620.08 56.56) rotate(-24.49)">S</text><text class="cls-1" transform="matrix(0.94, -0.33, 0.33, 0.94, 627.27, 53.27)">T</text><text class="cls-1" transform="translate(634.86 50.66) rotate(-15.57)"> </text><text class="cls-1" transform="translate(638.61 49.52) rotate(-11.39)">C</text><text class="cls-1" transform="matrix(1, -0.09, 0.09, 1, 647.2, 47.7)">O</text><text class="cls-1" transform="translate(658.1 46.71) rotate(2.05)">N</text><text class="cls-1" transform="translate(669.25 47.18) rotate(8.18)">T</text><text class="cls-1" transform="matrix(0.97, 0.24, -0.24, 0.97, 677.15, 48.25)">R</text><text class="cls-1" transform="matrix(0.94, 0.34, -0.34, 0.94, 685.8, 50.29)">O</text><text class="cls-1" transform="translate(696.12 54.1) rotate(25.63)">L</text><text class="cls-1" transform="translate(702.52 57.22) rotate(29.2)"> </text><text class="cls-1" transform="matrix(0.83, 0.55, -0.55, 0.83, 705.98, 59.01)">A</text><text class="cls-1" transform="matrix(0.76, 0.65, -0.65, 0.76, 714.09, 64.34)">N</text><text class="cls-1" transform="translate(722.58 71.55) rotate(47.24)">D</text><text class="cls-1" transform="matrix(0.62, 0.79, -0.79, 0.62, 729.6, 79.32)"> </text><text class="cls-1" transform="translate(732.08 82.32) rotate(55.96)">C</text><text class="cls-1" transform="translate(737.11 89.81) rotate(61.08)">L</text><text class="cls-1" transform="matrix(0.41, 0.91, -0.91, 0.41, 740.55, 96.01)">E</text><text class="cls-1" transform="translate(743.73 102.91) rotate(71.33)">A</text><text class="cls-1" transform="matrix(0.21, 0.98, -0.98, 0.21, 746.9, 112.11)">N</text><text class="cls-1" transform="matrix(0.12, 0.99, -0.99, 0.12, 749.07, 123.09)">I</text><text class="cls-1" transform="translate(749.74 127.15) rotate(87.93)">N</text><text class="cls-1" transform="translate(750.13 138.28) rotate(94.77)">G</text><text class="cls-1" transform="translate(749.16 148.41) rotate(99.27)"> </text><text class="cls-1" transform="translate(748.66 152.33) rotate(103.91)">S</text><text class="cls-1" transform="matrix(-0.31, 0.95, -0.95, -0.31, 746.82, 160.01)">E</text><text class="cls-1" transform="translate(744.58 167.12) rotate(113.18)">R</text><text class="cls-1" transform="translate(741.03 175.44) rotate(119.11)">V</text><text class="cls-1" transform="matrix(-0.55, 0.83, -0.83, -0.55, 736.41, 183.56)">I</text><text class="cls-1" transform="matrix(-0.61, 0.79, -0.79, -0.61, 734.2, 187.08)">C</text><text class="cls-1" transform="matrix(-0.68, 0.73, -0.73, -0.68, 728.66, 194.19)">E</text><text class="cls-1" transform="matrix(-0.74, 0.67, -0.67, -0.74, 723.55, 199.69)">S</text><path class="cls-2" d="M342.47,100.86h48.44L377.28,123.3H366.41v19.44h21.26v21.89H366.41v19.2h39.33l-10.48,22.52H342.47Z"/><path class="cls-2" d="M394.81,100.86H473.4l-36.13,84.79h47.57v20.7H400.07l36.43-82.89H381.18Z"/><path class="cls-2" d="M557.82,100.86H623V123.3H581.76v19.44H603v21.89H581.76v19.2h41.43v22.52H557.82Z"/><path class="cls-2" d="M626.52,100.86H650.7l30.42,60.84-.87-11.37V128.21h23.94v78.14H679.62l-29.79-59.89.63,13.11v46.78H626.52Z"/><polygon class="cls-2" points="271.25 117.01 287.84 100.06 337.12 100.06 337.12 148.38 319.63 165.87 319.63 117.85 271.25 117.01"/><polygon class="cls-2" points="268.13 120.01 316.93 120.01 316.93 169.53 299.26 187.2 299.26 138.28 250.7 138.28 268.13 120.01"/><polygon class="cls-2" points="337.12 154.67 337.12 206.59 255.63 288.09 255.63 262.85 320.17 198.3 320.17 195.38 255.89 259.66 255.89 234.16 336.78 153.26 337.12 154.67"/><path class="cls-3" d="M488.07,100.1l26.6,0s33.83-2.85,37.56,27.28c0,0,3.31,13.79-13.51,25,0,0,15.82,3.55,15.41,23.32S539.8,203.91,525.28,206l-37.21.33V185.66H512s20,1.39,18.17-13.22c0,0-1-12-18.17-9.78H488.07V143.4H512s16.6,1.07,16-11.22c0,0,2.52-12.51-16-11.7H488.07Z"/><path class="cls-4" d="M23,144.51s-42.18-36,17.24-107.14c0,0,14.3,34.17,24.76,42.59,0,0,10.72,14.14,34.71,19.18,10.09,2.12,22.53,2.63,37.5-.2a70.63,70.63,0,0,0,8.6-2.16c43.16-13.7,52.05-62.18,52.05-62.18S231,72.5,230.72,108.76c0,0,.55,15.46-12.45,37.22,0,0-3.56,1.37,2.19-14.51s3-37.39-18.88-71.28l-46.35,62.15s-2.36,1-1-3.8,3.08-13,3.08-13,.61-2.36-1.34-1.13A60.18,60.18,0,0,1,145.4,109a80.72,80.72,0,0,1-45.5,2.33,77.7,77.7,0,0,1-15.38-5.61s-3.28-1.54-3.08,2.66,3.28,12.52,3.28,12.52.65,2.5-1.5.65c0,0-37.18-44.88-44.06-60.37C39.16,61.18,5.71,94,23,144.51Z"/><path class="cls-2" d="M159.83,293.15s-3.16,5.64-34.5,19.9a17.38,17.38,0,0,0-1.81,1c-1.23.78-4.53,2.26-8.87-.38-5.56-3.39-32.46-19.11-32.46-19.11s-3.91-1.59-5.7-7.65-9.6-30.36-9.21-35.85c0,0-4.67-.49-17.29,24.74a1,1,0,0,1-1.44-.55c-.6-1-13.59-15.89-19.43-28.8a9.16,9.16,0,0,1,.49-8.15,25.26,25.26,0,0,0,2.25-4.39c2.26-5.93,7.12-18.81,7.5-20.94,0,0,1.09-1.72-1.64-.7a68.43,68.43,0,0,0-17.79,9.71s-1.19.78-.69-1.72,4.62-16.79,23.3-36.94A87.11,87.11,0,0,0,20,190.54s-1.88-.22,0-3.06c.75-1.11,8.06-18.11,10.76-24.44-2.78-1.8-7.47,5.26-9.48,2.77-.49-.3-2.9,1.33-3.41,1-4.17,2.51-15,24.74-17.91,43.66,0,0-.23,1.52,1.82,0s14.44-8.45,14.44-8.45-8.41,14.31-11.69,39.7c0,0,11.33-11.95,19.28-13.1,0,0,1.89.57-3.28,11,0,0-3.78,6.15,2.68,15.4a119.62,119.62,0,0,0,32.5,38.75s2.38-17.45,6.36-18.76c0,0,2.58,17.29,6.26,21.63s46.3,27.68,46.3,27.68,4.67,3.77,12.42-1.06l37.77-19.41s6.95-2.63,7.95-7.79Z"/><path class="cls-5" d="M102.47,184.22s-.7.87-1.78-2-6.76-19.13-15.79-22.05-13.46.38-18.64-7.24-9.19-9.84-9.19-9.84-1.25-1.08.32-2.05,3.3,1.56,23.46,4.7S102.47,184.22,102.47,184.22Z"/><path class="cls-6" d="M135.79,184.22s.7.87,1.78-2,6.76-19.13,15.79-22.05,13.45.38,18.64-7.24,9.19-9.84,9.19-9.84,1.24-1.08-.32-2.05-3.3,1.56-23.46,4.7S135.79,184.22,135.79,184.22Z"/><path class="cls-7" d="M39.66,191.36S59.23,194.17,67.55,220s13.73,37,13.73,37,3.24,9.73,10.7,13,7.79,5.08,22.38,7.24c0,0,12.65,3.46,29.08-6.38A43.09,43.09,0,0,0,163,244.22s11.78-53.62,40.21-52.86c0,0-23.78-7.89-37.3,22,0,0-.75,1.3-1.4-.76,0,0-4.54-14.27-16.43-17.73,0,0,12.32,14.92,11.46,26.7S147.22,248,147.22,248s-12.92-2.27-17.81-1.51c0,0-8.24-1.41-4-6.16,0,0,2.48-2.38,8-4.33,0,0,8.75-3.89,7.56-11.78s-8.43-11.46-8.43-11.46-7.46-2.49-25.29-.32c0,0-10.06,2.81-9.19,11.78a8.6,8.6,0,0,0,4.43,9.88c6.38,3.63,12.32,2.33,12.21,9.47,0,0-2.63,1.83-10.86,1.74a9,9,0,0,0-1.79.18,63.78,63.78,0,0,0-10.37,2.94s-14.38-15.89-10.59-34.59a41.52,41.52,0,0,1,10.37-18.7S79.34,198.82,73.28,213c0,0-2.7,1.51-2.27-3C71,210,66.47,187.57,39.66,191.36Z"/><path class="cls-8" d="M96,254.6s8.57,8.07,17.87,8.36c0,0,20.15,4,28-7.14C141.78,255.82,124.34,246.6,96,254.6Z"/><path class="cls-2" d="M210.3,155.05s29.16,8.44,31,77.4A67.68,67.68,0,0,1,226.12,216c-7.05-10.68-.05,17.25-.05,17.25s-1.61,30.17-40.15,65c0,0-2.15,1.87-1.77-3.77,0,0-1.61-26.4-4.91-20.51l-6.42,22.14-13-2.86s10.1-16.36,17.54-55.69l14.47,36.29s1.32,2.16,3.25-.89l19.6-31s3.53-5.08-.13-17.92-6.71-31.5-6.71-31.5.84-3.19,4.71,2.09,16.79,13.28,16.79,13.28-.82-15.53-19.12-51.66C210.21,156.21,209.69,154.82,210.3,155.05Z"/><polygon class="cls-2" points="70.31 68.91 63.75 20.7 99.11 41.54 120.16 15.38 128.33 24.85 103.44 56.52 136.38 56.52 146.35 69.09 70.31 68.91"/><polygon class="cls-8" points="80.42 44.93 82.06 56.52 100.19 56.52 91.89 51.6 80.42 44.93"/><polygon class="cls-2" points="129.52 26.66 122.01 36.09 148.91 69.09 162.38 69.09 148.91 50.73 175.49 35.68 177.36 21.16 141.3 40.6 129.52 26.66"/><polygon class="cls-2" points="161.09 45.96 174.79 38.32 169.28 69.09 164.2 69.09 155.18 56.52 158.87 56.52 161.09 45.96"/><polygon class="cls-2" points="99.17 9.44 106.68 0 119 14.38 111.77 23.3 99.17 9.44"/><path class="cls-9" d="M70.72,70.7h98.67a0,0,0,0,1,0,0v1a5.87,5.87,0,0,1-5.87,5.87H76.58a5.87,5.87,0,0,1-5.87-5.87v-1A0,0,0,0,1,70.72,70.7Z"/><path class="cls-10" d="M342.47,211H704.19a0,0,0,0,1,0,0v2.33a5.87,5.87,0,0,1-5.87,5.87h-350a5.87,5.87,0,0,1-5.87-5.87V211A0,0,0,0,1,342.47,211Z"/><path class="cls-11" d="M63.76,1.69h0a8,8,0,0,0,8.13,8.13h0A8.13,8.13,0,0,0,63.76,18h0a8.25,8.25,0,0,0-8.14-8.14h0a8.13,8.13,0,0,0,8.14-8.13Z"/><path class="cls-12" d="M176.68,2.37h0a8,8,0,0,0,8.14,8.13h0a8.14,8.14,0,0,0-8.14,8.14h0a8.24,8.24,0,0,0-8.13-8.14h0a8.13,8.13,0,0,0,8.13-8.13Z"/><path class="cls-13" d="M118.86,284.49h0a8,8,0,0,0,8.14,8.13h0a8.15,8.15,0,0,0-8.14,8.14h0a8.24,8.24,0,0,0-8.13-8.14h0a8.13,8.13,0,0,0,8.13-8.13Z"/><path class="cls-14" d="M692.39,90.6h0A16.41,16.41,0,0,0,709,107.22h0a16.63,16.63,0,0,0-16.62,16.63h0a16.86,16.86,0,0,0-16.62-16.63h0A16.62,16.62,0,0,0,692.39,90.6Z"/><path class="cls-2" d="M34.58,140.67s3.72-4.6,14.45-10.58l-8.17-7.38,11.62-.87s5.58,3.25-14.61-28.91c0,0,8.92,3.86,23,25.26,0,0,1.92,4.45,16.66,12.14,13.74,7.17,19.93,15.13,19.93,15.13S62.35,121,54.1,126.47L62,130.63s2,.92-.2,1.58-20.75,5-32,33.12a4.27,4.27,0,0,1-1.9,2.12L11.07,177.3S21.3,154.88,34.58,140.67Z"/><path class="cls-2" d="M204.09,95.05s-12.72,11-21.81,34a1.16,1.16,0,0,0,1.17,1.57l9.41-.69L187,134.76a1.56,1.56,0,0,0,.45,2.67c5,1.83,15.37,6.38,23.6,20.14a59.58,59.58,0,0,0,19.66,20.15h0s-8.82-30.59-33.11-43.19c0,0-1.82-.66.5-2.9l6-5.43a.74.74,0,0,0-.56-1.29l-12.26.92S201,99.5,204.09,95.05Z"/></g></g></svg>