<?xml version="1.0" encoding="utf-8"?>
<!-- Generator: Adobe Illustrator 26.0.1, SVG Export Plug-In . SVG Version: 6.00 Build 0)  -->
<svg version="1.1" id="Layer_1" xmlns="http://www.w3.org/2000/svg" xmlns:xlink="http://www.w3.org/1999/xlink" x="0px" y="0px"
	 viewBox="0 0 100 96.4" style="enable-background:new 0 0 100 96.4;" xml:space="preserve">
<style type="text/css">
	.st0{fill:#A66B49;}
</style>
<path class="st0" d="M94.4,57.4L81.7,46.5L81,39c0.8-1,2.5-3.3,2.5-4.8c0-4-3.5-5.8-3.5-5.8v-2c0,0,0.2-3.3,0-4c-2-6-5.2-13.6-10-16
	c-4-2-8,4-8,4l-44-10c-8-2-8,4-6,6c0,0-10-2-10,4c0,4,4,8,10,8c8,0,22-2,22-2s-10,2-10,6c0,3.5,6.7,7.6,15.8,8.9L15.6,45.5l-5.7,2.9
	L0,49.7v0.7l12-0.7l6-3l28.4-14.9c0.8,0,1.7,0,2.5-0.1l3.7,23l-4.9,16.6l-4.4,5.8h1.6l4-4L55,54.7l-3.1-23.4
	c3.3-0.5,6.8-1.4,10.1-2.9c0,0,1.2,1.2,3,2.3v9.9l16.4,26.6l6.3,2.1l0.6-0.9l-5.7-2.9L67.6,40.2l0.8-8c0,0,0,0,0,0l2.6,8.7l9.3,7.6
	L82.2,59l0.1-6.5L82,49.9l11.6,9.5h6.4v-1.3L94.4,57.4z M73.6,39.6L71.9,32c0.8-0.2,1.6-0.6,2.3-0.8c0.5-0.2-0.1,3.3,1.2,5.4
	c0.9,1.5,2.3,2.3,3.4,2.6l1,5.7L73.6,39.6z"/>
</svg>
